<svg xmlns="http://www.w3.org/2000/svg" viewBox="0 0 1200 720"><defs><linearGradient id="b" y2="1"><stop stop-color="#d9d0bf"/><stop offset="1" stop-color="#af9e83"/></linearGradient></defs><rect width="1200" height="720" fill="url(#b)"/><circle cx="170" cy="120" r="78" fill="#a3332d" opacity=".9"/><path d="M0 500L200 350 355 475 530 300 730 460 920 315 1200 510V720H0Z" fill="#6e7164" opacity=".42"/><g transform="translate(80 270)"><path d="M0 210L150 105 300 210Z" fill="#52504a"/><rect y="210" width="300" height="190" fill="#8c352c"/><path d="M270 210L420 85 590 210Z" fill="#4a4c47"/><rect x="290" y="210" width="300" height="190" fill="#9b4134"/><path d="M560 210L740 115 930 210Z" fill="#50534d"/><rect x="600" y="210" width="330" height="190" fill="#7b322b"/><g fill="#dfc795"><rect x="50" y="250" width="70" height="150"/><rect x="180" y="250" width="70" height="150"/><rect x="350" y="245" width="70" height="155"/><rect x="465" y="245" width="70" height="155"/><rect x="655" y="250" width="70" height="150"/><rect x="800" y="250" width="70" height="150"/></g></g><path d="M0 640C240 590 430 670 640 620S1000 590 1200 630" fill="none" stroke="#eadfc9" stroke-width="58" opacity=".7"/></svg>
