<svg xmlns="http://www.w3.org/2000/svg" viewBox="0 0 1200 720"><defs><linearGradient id="b" y2="1"><stop stop-color="#c5d1c6"/><stop offset="1" stop-color="#6b7869"/></linearGradient></defs><rect width="1200" height="720" fill="url(#b)"/><circle cx="210" cy="130" r="80" fill="#b38b45" opacity=".85"/><path d="M0 420C160 240 300 390 440 220S720 380 880 190 1060 320 1200 180V720H0Z" fill="#4b6257" opacity=".7"/><path d="M100 720C280 580 450 570 600 500S900 420 1120 270" fill="none" stroke="#d8c5a3" stroke-width="86"/><g fill="#8d887a"><path d="M330 520h58v110h-58zM315 505h88l-15-25h-58z"/><path d="M520 455h66v120h-66zM505 438h96l-16-27h-64z"/><path d="M755 380h70v126h-70zM738 362h104l-17-29h-70z"/></g></svg>
