<svg xmlns="http://www.w3.org/2000/svg" viewBox="0 0 1200 720"><defs><linearGradient id="b" y2="1"><stop stop-color="#b9d1dc"/><stop offset="1" stop-color="#dfd5bc"/></linearGradient></defs><rect width="1200" height="720" fill="url(#b)"/><circle cx="925" cy="130" r="88" fill="#b28a40"/><path d="M0 530C250 460 420 540 620 440S960 430 1200 340V720H0Z" fill="#6d8879" opacity=".6"/><g transform="translate(320 105)"><ellipse cx="280" cy="500" rx="285" ry="60" fill="#b69a6a"/><rect x="110" y="345" width="340" height="150" rx="25" fill="#205a78"/><path d="M50 350H510L425 280H135Z" fill="#2b6f90"/><rect x="150" y="225" width="260" height="80" fill="#2e7595"/><path d="M100 230H460L390 165H170Z" fill="#2d6e8e"/><rect x="190" y="120" width="180" height="62" fill="#367d98"/><path d="M150 125H410L335 60H225Z" fill="#2b6986"/><g fill="#d6b65d"><rect x="135" y="375" width="28" height="120"/><rect x="220" y="375" width="28" height="120"/><rect x="305" y="375" width="28" height="120"/><rect x="390" y="375" width="28" height="120"/></g></g></svg>
