<svg xmlns="http://www.w3.org/2000/svg" viewBox="0 0 1200 720"><defs><linearGradient id="b" x2="1" y2="1"><stop stop-color="#2f5146"/><stop offset="1" stop-color="#d2b274"/></linearGradient></defs><rect width="1200" height="720" fill="url(#b)"/><circle cx="990" cy="120" r="78" fill="#a93436"/><path d="M135 470c70-185 245-155 315-15s232 145 315-20 220-165 310-35" fill="none" stroke="#e2c77e" stroke-width="72" stroke-linecap="round"/><path d="M150 460c65-140 205-120 274-10s191 111 267-23 194-131 300-32" fill="none" stroke="#6e2b26" stroke-width="34" stroke-linecap="round"/><g fill="#ead79e"><circle cx="140" cy="465" r="55"/><path d="M100 420l-55-65 78 24zM148 410l33-74 24 83z"/><circle cx="123" cy="448" r="8" fill="#201d18"/></g><path d="M70 495c-55 35-45 78 10 70" fill="none" stroke="#ead79e" stroke-width="16" stroke-linecap="round"/><path d="M80 525c-48 46-20 84 35 61" fill="none" stroke="#ead79e" stroke-width="12" stroke-linecap="round"/></svg>
