<svg xmlns="http://www.w3.org/2000/svg" viewBox="0 0 1200 720">
<defs><linearGradient id="bg" x2="0" y2="1"><stop stop-color="#d8c29b"/><stop offset="1" stop-color="#f1e5cd"/></linearGradient><filter id="g"><feTurbulence baseFrequency=".8" numOctaves="2"/><feColorMatrix values="1 0 0 0 0 0 1 0 0 0 0 0 1 0 0 0 0 0 .06 0"/></filter></defs>
<rect width="1200" height="720" fill="url(#bg)"/><circle cx="950" cy="135" r="95" fill="#a42f2c"/>
<path d="M0 545 C240 460 330 530 520 430 C690 340 790 440 960 335 C1060 270 1130 295 1200 240V720H0Z" fill="#718777" opacity=".58"/>
<g transform="translate(110 235)"><rect x="0" y="270" width="980" height="110" rx="6" fill="#7f211d"/><rect x="110" y="180" width="760" height="105" fill="#9f2c25"/><path d="M40 180 H940 L820 105 H160Z" fill="#c58d34"/><path d="M170 105 H810 L695 35 H285Z" fill="#d4a247"/><rect x="280" y="110" width="410" height="78" fill="#8e241f"/><path d="M210 110 H760 L676 54 H300Z" fill="#d9aa51"/><g fill="#f0d39b"><rect x="75" y="284" width="56" height="96"/><rect x="210" y="284" width="56" height="96"/><rect x="345" y="284" width="56" height="96"/><rect x="480" y="284" width="56" height="96"/><rect x="615" y="284" width="56" height="96"/><rect x="750" y="284" width="56" height="96"/><rect x="885" y="284" width="56" height="96"/></g></g><rect width="1200" height="720" filter="url(#g)" opacity=".35"/></svg>
