<svg xmlns="http://www.w3.org/2000/svg" viewBox="0 0 1200 720"><defs><linearGradient id="b" x2="1" y2="1"><stop stop-color="#b6d0dc"/><stop offset="1" stop-color="#e6d8bf"/></linearGradient></defs><rect width="1200" height="720" fill="url(#b)"/><circle cx="185" cy="125" r="78" fill="#a63231"/><g transform="translate(335 100)"><rect x="0" y="0" width="530" height="520" rx="68" fill="#252b31"/><rect x="35" y="48" width="460" height="390" rx="35" fill="#eef4f1"/><g fill="#27343c"><rect x="95" y="105" width="72" height="72"/><rect x="185" y="105" width="25" height="25"/><rect x="230" y="105" width="65" height="65"/><rect x="320" y="105" width="35" height="35"/><rect x="375" y="105" width="70" height="70"/><rect x="95" y="195" width="25" height="25"/><rect x="142" y="192" width="60" height="60"/><rect x="230" y="198" width="28" height="28"/><rect x="280" y="195" width="75" height="75"/><rect x="385" y="200" width="28" height="28"/><rect x="95" y="285" width="70" height="70"/><rect x="190" y="295" width="35" height="35"/><rect x="250" y="285" width="55" height="55"/><rect x="330" y="285" width="25" height="25"/><rect x="380" y="280" width="66" height="66"/></g><rect x="210" y="463" width="110" height="17" rx="9" fill="#596068"/></g></svg>
