<svg xmlns="http://www.w3.org/2000/svg" viewBox="0 0 1200 720"><defs><linearGradient id="b" y2="1"><stop stop-color="#cad8d1"/><stop offset="1" stop-color="#7c9a8c"/></linearGradient></defs><rect width="1200" height="720" fill="url(#b)"/><circle cx="190" cy="130" r="80" fill="#a63231"/><path d="M0 510C220 430 400 505 610 420S980 390 1200 300V720H0Z" fill="#496b5d" opacity=".45"/><g transform="translate(145 225)"><g fill="#f0dfbc"><circle cx="110" cy="85" r="52"/><rect x="50" y="145" width="120" height="220" rx="45"/><circle cx="350" cy="65" r="52"/><rect x="290" y="125" width="120" height="240" rx="45"/><circle cx="600" cy="95" r="52"/><rect x="540" y="155" width="120" height="210" rx="45"/><circle cx="850" cy="72" r="52"/><rect x="790" y="132" width="120" height="233" rx="45"/></g><g fill="#704238"><rect x="50" y="250" width="120" height="115"/><rect x="290" y="230" width="120" height="135"/><rect x="540" y="260" width="120" height="105"/><rect x="790" y="240" width="120" height="125"/></g></g></svg>
