<svg xmlns="http://www.w3.org/2000/svg" viewBox="0 0 1200 720"><defs><linearGradient id="b" y2="1"><stop stop-color="#dae1c8"/><stop offset="1" stop-color="#70866b"/></linearGradient></defs><rect width="1200" height="720" fill="url(#b)"/><circle cx="940" cy="115" r="75" fill="#b88a3d"/><path d="M0 510C240 440 410 525 620 430S980 400 1200 320V720H0Z" fill="#4d6b58" opacity=".42"/><g transform="translate(230 210)"><ellipse cx="390" cy="380" rx="350" ry="85" fill="#d4c5a6"/><path d="M150 130h430c0 190-70 285-215 285S150 320 150 130Z" fill="#f1e6cd"/><path d="M580 165c155-20 160 160 20 175" fill="none" stroke="#f1e6cd" stroke-width="45"/><ellipse cx="365" cy="135" rx="215" ry="58" fill="#496b5d"/><g fill="#789b6f"><ellipse cx="220" cy="10" rx="75" ry="28" transform="rotate(-28 220 10)"/><ellipse cx="330" cy="-25" rx="80" ry="30" transform="rotate(12 330 -25)"/><ellipse cx="470" cy="5" rx="72" ry="28" transform="rotate(32 470 5)"/></g></g></svg>
