<svg xmlns="http://www.w3.org/2000/svg" viewBox="0 0 1200 720"><defs><linearGradient id="b" y2="1"><stop stop-color="#d7bc87"/><stop offset="1" stop-color="#866a4d"/></linearGradient></defs><rect width="1200" height="720" fill="url(#b)"/><circle cx="920" cy="130" r="92" fill="#9b2f22"/><path d="M0 525C240 440 400 500 600 410S950 420 1200 300V720H0Z" fill="#5d635b" opacity=".48"/><g transform="translate(95 205)"><rect x="0" y="270" width="1010" height="175" fill="#72513d"/><rect x="80" y="205" width="850" height="72" fill="#8b6249"/><g fill="#d1a96d"><rect x="30" y="312" width="100" height="133"/><rect x="250" y="312" width="100" height="133"/><rect x="660" y="312" width="100" height="133"/><rect x="880" y="312" width="100" height="133"/></g><rect x="410" y="110" width="210" height="165" fill="#6f3d2d"/><path d="M350 115H680L610 55H420Z" fill="#4a4238"/><path d="M390 55H640L585 5H445Z" fill="#57483a"/><rect x="470" y="170" width="90" height="105" fill="#d2b27f"/></g></svg>
